<svg width="203" height="178" viewBox="0 0 203 178" fill="none" xmlns="http://www.w3.org/2000/svg">
<path d="M33.5675 144.594C45.8653 134.23 54.9332 126.996 62.315 121.318C72.3471 113.602 79.265 108.759 86.9437 102.837C92.8952 98.2467 99.3037 93.0079 107.973 85.2797C109.478 83.9386 110.946 82.5917 112.376 81.2398C119.408 74.5921 125.535 67.8263 130.675 61.0663C138.738 50.4639 144.375 39.8756 147.28 29.779C150.346 19.1258 150.37 9.02007 146.992 0.0227654C132.611 5.17943 119.944 11.3709 108.806 18.281C98.8411 24.4639 90.1012 31.222 82.4559 38.329C73.745 46.4266 66.4552 54.977 60.3931 63.645C54.5069 72.0615 49.7782 80.5889 46.03 88.9204C42.1625 97.5172 39.3388 105.906 37.3645 113.748C34.358 125.692 33.3212 136.371 33.5675 144.594Z" fill="#8EA84C"/>
<g style="mix-blend-mode:multiply">
<path d="M61.4373 121.995C61.3715 121.91 61.3172 121.814 61.2775 121.708L57.2384 110.949C47.7265 122.347 39.5638 133.744 35.4243 143.032C34.8136 143.545 34.1947 144.066 33.5674 144.594C33.5409 143.707 33.5292 142.792 33.5334 141.849C37.7058 132.629 45.5663 121.598 54.6113 110.658L37.6252 114.819C37.4461 114.863 37.2665 114.861 37.0991 114.82C37.1858 114.464 37.2742 114.107 37.3645 113.748C37.4657 113.346 37.5691 112.943 37.6748 112.538L56.9987 107.804C63.4317 100.203 70.3646 92.6904 76.9826 85.8968L46.1732 90.0133C45.9636 90.0413 45.7601 90.0091 45.5802 89.9299C45.7285 89.5938 45.8784 89.2573 46.03 88.9205C46.2073 88.5263 46.3868 88.1318 46.5685 87.7368L79.4941 83.3376C85.8673 76.8904 91.8468 71.1997 96.675 66.8519C98.4279 65.2734 100.138 63.6725 101.805 62.0548L60.4611 64.7454C60.2027 64.7622 59.9596 64.6894 59.7622 64.5538C59.971 64.2508 60.1813 63.9478 60.393 63.645C60.6631 63.2589 60.9355 62.873 61.2105 62.4874L104.201 59.6897C110.755 53.1064 116.607 46.2953 121.744 39.6242L82.4463 39.4317C82.1308 39.4301 81.8473 39.2974 81.6474 39.0857C81.9155 38.833 82.185 38.5808 82.4559 38.329C82.8501 37.9625 83.2472 37.597 83.6473 37.2324L123.414 37.4272C129.805 28.9109 135.011 20.697 139.006 13.5667L109.013 19.3634C108.551 19.4528 108.101 19.2423 107.866 18.8681C108.178 18.6719 108.492 18.4761 108.806 18.281C109.697 17.7282 110.598 17.18 111.509 16.6365L140.388 11.055C142.52 7.1057 144.248 3.55099 145.566 0.539782C146.039 0.366319 146.515 0.193982 146.992 0.0227849C147.183 0.531129 147.363 1.04302 147.532 1.55835C146.191 4.61027 144.451 8.18236 142.318 12.1307L147.795 27.8842C147.634 28.5138 147.463 29.1454 147.28 29.779C147.179 30.1313 147.074 30.4842 146.966 30.8376C146.635 30.7412 146.355 30.4924 146.234 30.1434L140.879 14.7426C136.846 21.9303 131.606 30.1888 125.184 38.7465L131.504 59.9654C131.231 60.3323 130.954 60.6993 130.675 61.0663C130.453 61.359 130.228 61.6517 130.002 61.9444C129.822 61.8083 129.683 61.616 129.614 61.3836L123.522 40.9325C118.382 47.6103 112.528 54.4317 105.974 61.0345L113.248 80.4102C112.959 80.6869 112.668 80.9635 112.376 81.2398C112.108 81.4929 111.839 81.7457 111.569 81.9984C111.471 81.8951 111.391 81.771 111.338 81.6295L104.25 62.7496C102.28 64.6861 100.249 66.6009 98.1572 68.4847C93.4222 72.7485 87.5595 78.3248 81.2995 84.6489L87.861 102.127C87.5539 102.366 87.2482 102.602 86.9437 102.837C86.6498 103.064 86.3571 103.289 86.0653 103.512C85.9999 103.428 85.9458 103.332 85.9063 103.227L79.5853 86.3893C72.7555 93.3586 65.5464 101.133 58.8754 109.003L63.2339 120.613C62.9305 120.845 62.6242 121.08 62.315 121.318C62.025 121.541 61.7325 121.767 61.4373 121.995Z" fill="#8EA84C"/>
</g>
</svg>
