<svg width="50" height="36" viewBox="0 0 50 36" fill="none" xmlns="http://www.w3.org/2000/svg">
<path d="M45.9525 0H4.04773C3.12157 0 2.23335 0.374602 1.57847 1.0414C0.923577 1.70819 0.555664 2.61256 0.555664 3.55556V32C0.555664 32.943 0.923577 33.8474 1.57847 34.5142C2.23335 35.181 3.12157 35.5556 4.04773 35.5556H45.9525C46.8786 35.5556 47.7669 35.181 48.4217 34.5142C49.0766 33.8474 49.4446 32.943 49.4446 32V3.55556C49.4446 2.61256 49.0766 1.70819 48.4217 1.0414C47.7669 0.374602 46.8786 0 45.9525 0ZM42.1112 3.55556L25.0001 15.6089L7.889 3.55556H42.1112ZM4.04773 32V5.17333L24.0049 19.2356C24.2971 19.442 24.6444 19.5526 25.0001 19.5526C25.3558 19.5526 25.7031 19.442 25.9953 19.2356L45.9525 5.17333V32H4.04773Z" fill="#AFAFAF"/>
</svg>
