<svg width="32" height="33" viewBox="0 0 32 33" fill="none" xmlns="http://www.w3.org/2000/svg">
<g clip-path="url(#clip0_169_1047)">
<path d="M14.1312 16.5784C12.8 16.5367 11.6651 16.909 11.264 17.1005L10.9568 17.4398C10.9568 17.4398 14.3104 17.2994 17.6128 19.8933C20.9152 22.4872 24.7296 21.381 24.7296 21.381C23.808 21.294 21.5091 20.7076 19.6864 19.058C17.408 16.9961 15.7952 16.6306 14.1312 16.5784Z" fill="#5D9D4D"/>
<path d="M20.6592 22.5034C22.441 22.4199 24.1152 21.7204 24.7296 21.381C24.7296 21.381 20.9152 22.4872 17.6128 19.8933C14.3104 17.2994 10.9568 17.4398 10.9568 17.4398L10.6496 17.7791C11.264 17.8574 13.7128 18.8141 14.6432 19.7628C15.2576 20.3892 18.432 22.6078 20.6592 22.5034Z" fill="#7EBA62"/>
<path d="M5.35041 15.8735C5.43784 17.5003 6.20375 19.8235 6.60481 20.7805C6.57068 20.0845 6.53825 18.4105 6.47681 16.9698C6.40001 15.1688 6.40001 13.42 6.47681 12.4021C6.53825 11.5877 6.74135 8.13017 6.88641 6.5293C6.19009 8.63827 5.59711 10.4967 5.35041 13.2634C5.33645 13.42 5.24801 13.9681 5.35041 15.8735Z" fill="#5D9D4D"/>
<path d="M7.39841 9.92245C6.9989 8.63613 6.92055 7.20793 6.88641 6.5293C6.74135 8.13017 6.53825 11.5877 6.47681 12.4021C6.40001 13.42 6.40001 15.1688 6.47681 16.9698C6.53825 18.4105 6.57068 20.0845 6.60481 20.7805L7.80801 19.2928C8.09473 18.6037 8.32001 17.457 8.39681 16.9698C8.44801 16.6652 8.51969 15.6595 8.39681 14.0725C8.27393 12.4856 7.88481 11.4885 7.39841 9.92245Z" fill="#7EBA62"/>
<path d="M12.1344 1.64844C11.8272 2.16176 11.1616 3.27193 10.9568 3.60602C10.7008 4.02364 9.88161 5.3548 9.65121 6.05953C9.42081 6.76426 9.19041 7.46899 9.11361 8.06932C9.03681 8.66964 8.98561 9.40048 8.96001 9.9225C8.93441 10.4445 8.96001 11.0187 9.03681 11.4886C9.11361 11.9584 9.47201 13.0807 9.57441 13.3679C9.67681 13.655 10.3424 15.1949 10.9312 15.8997L11.2256 15.6125C10.8288 14.1335 10.1427 10.455 10.5728 7.5734C11.0029 4.69183 11.7931 2.42277 12.1344 1.64844Z" fill="#5D9D4D"/>
<path d="M11.52 15.3254C11.7931 14.7164 12.3699 13.3 12.4928 12.5065C12.6464 11.5147 12.6464 11.0709 12.672 10.5228C12.6976 9.9747 12.6464 8.93066 12.4928 8.22593C12.3392 7.52119 12.1344 6.79036 12.0064 6.39885C11.8784 6.00733 11.648 5.22429 11.648 4.54566C11.648 3.86703 11.7504 3.1623 11.8272 2.84909C11.904 2.53588 12.0576 1.88335 12.1344 1.64844C11.7931 2.42277 11.0029 4.69183 10.5728 7.5734C10.1427 10.455 10.8288 14.1335 11.2256 15.6125L11.52 15.3254Z" fill="#7EBA62"/>
<path d="M15.104 12.1675C15.6416 11.3235 16.7424 9.29112 16.8448 7.91298C16.9728 6.19031 16.8448 5.9032 17.1008 4.36323C17.3568 2.82326 17.6896 1.62261 17.9456 1.10059C17.1264 2.40564 15.36 5.65263 14.848 8.2001C14.336 10.7476 14.464 12.1849 14.592 12.5851L15.104 12.1675Z" fill="#7EBA62"/>
<path d="M17.9456 1.10059C17.0496 2.08373 15.1757 4.15442 14.848 4.57204C14.4384 5.09406 13.696 6.16421 13.44 7.18215C13.2352 7.99651 13.1669 8.68732 13.1584 8.93093C13.1243 9.75746 13.2608 11.729 14.08 13.0027L14.592 12.5851C14.464 12.1849 14.336 10.7476 14.848 8.2001C15.36 5.65263 17.1264 2.40564 17.9456 1.10059Z" fill="#5D9D4D"/>
<path d="M22.0928 0.526367C21.7259 0.665573 19.9168 2.06633 19.2256 4.25883C18.7142 5.88115 18.8245 7.57368 18.9696 9.16585L19.3664 8.90483C19.6838 4.95834 21.3163 1.67482 22.0928 0.526367Z" fill="#5D9D4D"/>
<path d="M19.7632 8.64382C20.3093 7.74768 21.2655 6.37526 21.7088 4.59815C22.1521 2.82103 22.2271 1.56225 22.0928 0.526367C21.3163 1.67482 19.6838 4.95834 19.3664 8.90483L19.7632 8.64382Z" fill="#7EBA62"/>
<path d="M29.3376 9.50462C25.9175 8.60674 21.5296 9.40891 19.7632 9.92224L19.4816 10.131C24.1511 11.3004 29.7728 10.3051 32 9.66123C31.4061 9.82828 29.9776 9.62643 29.3376 9.50462Z" fill="#5D9D4D"/>
<path d="M19.2 10.3399C24.4634 15.0798 29.9264 11.8624 32 9.66123C29.7728 10.3051 24.1511 11.3004 19.4816 10.131L19.2 10.3399Z" fill="#7EBA62"/>
<path d="M10.7776 21.3545C9.42591 21.3545 7.85919 21.6503 7.24479 21.7982L7.18079 21.8896C7.18079 21.8896 10.9056 21.7199 14.08 23.9646C17.2544 26.2093 21.5808 25.1131 21.5808 25.1131C20.9835 25.1827 19.4048 25.0087 17.8688 23.7558C15.9488 22.1897 12.4672 21.3545 10.7776 21.3545Z" fill="#5D9D4D"/>
<path d="M16.4608 26.5747C18.4678 26.7626 20.7104 25.6786 21.5808 25.1131C21.5808 25.1131 17.2544 26.2093 14.08 23.9646C10.9056 21.7199 7.18079 21.8896 7.18079 21.8896L7.11679 21.9809C7.11679 21.9809 8.98559 22.5029 11.4944 24.4866C14.0032 26.4703 14.4538 26.3868 16.4608 26.5747Z" fill="#7EBA62"/>
<path d="M7.9616 26.2096C6.34368 26.1261 4.608 26.488 3.9424 26.6794L3.89385 26.766C3.89385 26.766 6.2976 26.4967 9.9328 29.159C13.568 31.8213 20.4544 29.9681 20.4544 29.9681C19.6011 30.029 17.3517 29.8011 15.1808 28.4021C12.4672 26.6533 9.984 26.314 7.9616 26.2096Z" fill="#5D9D4D"/>
<path d="M12.8256 32.5C15.0528 32.5 18.7392 31.0035 20.4544 29.9681C20.4544 29.9681 13.568 31.8213 9.9328 29.159C6.2976 26.4967 3.89385 26.766 3.89385 26.766L3.84 26.8621C3.84 26.8621 6.3744 28.4021 7.9616 29.9681C9.5488 31.5342 10.8389 32.5 12.8256 32.5Z" fill="#7EBA62"/>
<path d="M3.19999 12.2979C-2.45761 20.7546 2.99519 26.4186 2.99519 26.4186L3.19999 26.1315C3.29582 24.2271 3.19999 22.0858 2.80304 19.7106C2.40608 17.3354 2.73471 14.074 3.19999 12.2979Z" fill="#5D9D4D"/>
<path d="M4.17279 17.8313C3.02079 14.7775 3.19999 12.2979 3.19999 12.2979C2.73471 14.074 2.40608 17.3354 2.80304 19.7106C3.19999 22.0858 3.29582 24.2271 3.19999 26.1315L4.50559 23.8868C4.50559 23.8868 5.32479 20.8851 4.17279 17.8313Z" fill="#7EBA62"/>
<path d="M26.8032 18.1709C23.6083 12.8881 17.4677 13.029 14.7968 13.7598L14.6432 13.8903C17.1008 13.7598 19.6215 14.7513 21.248 15.7174C22.8745 16.6836 25.2532 17.6205 26.8032 18.1709Z" fill="#5D9D4D"/>
<path d="M20.5056 17.5445C22.0621 18.2336 25.3525 18.2492 26.8032 18.1709C25.2532 17.6205 22.8745 16.6836 21.248 15.7174C19.6215 14.7513 17.1008 13.7598 14.6432 13.8903L14.4896 14.0209C16.6195 14.7099 17.8944 15.874 17.8944 15.874C17.8944 15.874 18.9491 16.8554 20.5056 17.5445Z" fill="#7EBA62"/>
<path d="M2.944 26.4704C1.77664 28.0364 0.512004 30.8293 0.0256042 32.0299H1.152C2.2784 29.6286 3.3024 27.8015 3.8656 26.8358C4.31616 26.0632 6.28907 23.1903 7.2192 21.8505C12.0339 15.5845 16.002 12.7655 17.9712 11.2534C19.8466 9.81341 22.6816 8.01687 23.7824 7.46875C24.8832 6.92063 23.5264 6.51867 22.8096 6.79012C22.0928 7.06157 18.8416 9.23493 17.3056 10.2877C5.8624 19.4231 4.4032 24.5128 2.944 26.4704Z" fill="#5D9D4D"/>
<path d="M26.112 2.58857C23.7568 4.13375 22.9291 6.03392 22.8096 6.79085L23.9104 7.39118C24.704 3.58041 29.7216 1.48362 31.7952 0.86589C30.8821 0.796287 28.4672 1.04338 26.112 2.58857Z" fill="#5D9D4D"/>
<path d="M30.5664 2.14485C30.8992 1.59673 31.5477 1.0921 31.7952 0.86589C29.7216 1.48362 24.704 3.58041 23.9104 7.39118C26.0864 7.13017 27.904 5.6685 28.416 5.22478C28.928 4.78106 29.7728 3.60651 29.8752 3.3716C29.9571 3.18368 30.3701 2.47546 30.5664 2.14485Z" fill="#7EBA62"/>
</g>
<defs>
<clipPath id="clip0_169_1047">
<rect width="32" height="32" fill="white" transform="translate(0 0.5)"/>
</clipPath>
</defs>
</svg>
