<svg width="18" height="18" viewBox="0 0 18 18" fill="none" xmlns="http://www.w3.org/2000/svg">
<path d="M9 1.125C4.65117 1.125 1.125 4.65117 1.125 9C1.125 13.3488 4.65117 16.875 9 16.875C13.3488 16.875 16.875 13.3488 16.875 9C16.875 4.65117 13.3488 1.125 9 1.125ZM9.5625 12.7969C9.5625 12.8742 9.49922 12.9375 9.42188 12.9375H8.57812C8.50078 12.9375 8.4375 12.8742 8.4375 12.7969V8.01562C8.4375 7.93828 8.50078 7.875 8.57812 7.875H9.42188C9.49922 7.875 9.5625 7.93828 9.5625 8.01562V12.7969ZM9 6.75C8.77921 6.74549 8.56898 6.65462 8.41442 6.49687C8.25986 6.33913 8.1733 6.12709 8.1733 5.90625C8.1733 5.68541 8.25986 5.47337 8.41442 5.31563C8.56898 5.15788 8.77921 5.06701 9 5.0625C9.22079 5.06701 9.43103 5.15788 9.58558 5.31563C9.74014 5.47337 9.8267 5.68541 9.8267 5.90625C9.8267 6.12709 9.74014 6.33913 9.58558 6.49687C9.43103 6.65462 9.22079 6.74549 9 6.75Z" fill="#B73B3B"/>
</svg>
