<svg width="45" height="45" viewBox="0 0 45 45" fill="none" xmlns="http://www.w3.org/2000/svg">
<path d="M44.3306 9.25769C42.765 9.95144 41.0831 10.4202 39.315 10.6321C41.1393 9.54043 42.5042 7.82231 43.155 5.79832C41.4409 6.81642 39.565 7.53306 37.6087 7.91707C36.2932 6.51244 34.5507 5.58143 32.6518 5.26858C30.7529 4.95573 28.8039 5.27855 27.1073 6.18691C25.4107 7.09528 24.0614 8.53837 23.269 10.2921C22.4766 12.0459 22.2853 14.0122 22.725 15.8858C19.2519 15.7114 15.8543 14.8087 12.7526 13.2363C9.651 11.6638 6.91466 9.45674 4.72121 6.75832C3.97121 8.05207 3.53996 9.55207 3.53996 11.1496C3.53912 12.5877 3.89327 14.0038 4.57098 15.2722C5.24869 16.5406 6.22901 17.6221 7.42496 18.4208C6.03798 18.3767 4.6816 18.0019 3.46871 17.3277V17.4402C3.46857 19.4572 4.16627 21.4121 5.44343 22.9733C6.72059 24.5345 8.49853 25.6057 10.4756 26.0052C9.18893 26.3534 7.83997 26.4047 6.53059 26.1552C7.08839 27.8907 8.17495 29.4084 9.63815 30.4957C11.1013 31.583 12.8679 32.1855 14.6906 32.2189C11.5965 34.6478 7.77537 35.9654 3.84184 35.9596C3.14505 35.9598 2.44885 35.9191 1.75684 35.8377C5.7496 38.4049 10.3975 39.7674 15.1443 39.7621C31.2131 39.7621 39.9975 26.4533 39.9975 14.9108C39.9975 14.5358 39.9881 14.1571 39.9712 13.7821C41.6799 12.5464 43.1548 11.0162 44.3268 9.26332L44.3306 9.25769Z" fill="#AFAFAF"/>
</svg>
