<svg width="32" height="32" viewBox="0 0 32 32" fill="none" xmlns="http://www.w3.org/2000/svg">
<path d="M10.586 3.2721C10.2111 3.64715 10.0004 4.15577 10.0004 4.68609C10.0004 5.21642 10.2111 5.72504 10.586 6.10009L20.486 16.0001L10.586 25.9001C10.2217 26.2773 10.0201 26.7825 10.0247 27.3069C10.0292 27.8313 10.2395 28.3329 10.6104 28.7037C10.9812 29.0745 11.4828 29.2849 12.0072 29.2894C12.5316 29.294 13.0368 29.0924 13.414 28.7281L24.728 17.4141C25.1029 17.039 25.3136 16.5304 25.3136 16.0001C25.3136 15.4698 25.1029 14.9611 24.728 14.5861L13.414 3.2721C13.0389 2.89715 12.5303 2.68652 12 2.68652C11.4697 2.68652 10.9611 2.89715 10.586 3.2721Z" fill="#C7C7C7"/>
</svg>
